<?xml version="1.0" standalone="no"?>
<!DOCTYPE svg PUBLIC "-//W3C//DTD SVG 20010904//EN"
 "http://www.w3.org/TR/2001/REC-SVG-20010904/DTD/svg10.dtd">
<svg version="1.0" xmlns="http://www.w3.org/2000/svg"
 width="580.000000pt" height="580.000000pt" viewBox="0 0 580.000000 580.000000"
 preserveAspectRatio="xMidYMid meet">
<metadata>
Created by potrace 1.11, written by Peter Selinger 2001-2013
</metadata>
<g transform="translate(0.000000,580.000000) scale(0.100000,-0.100000)"
fill="#000000" stroke="none">
<path d="M1395 5220 c0 -37 2 -70 5 -73 3 -3 37 -8 75 -11 278 -27 343 -81
362 -296 8 -94 8 -2304 0 -2382 -20 -190 -92 -243 -369 -274 -29 -3 -58 -7
-63 -9 -6 -1 -11 -32 -10 -71 l0 -69 695 1 c603 1 859 6 880 19 3 1 25 6 50 9
25 4 63 11 85 16 37 8 45 6 120 -39 44 -27 165 -97 268 -155 249 -141 326
-194 422 -291 125 -126 175 -246 180 -430 4 -127 -14 -217 -60 -310 -93 -190
-283 -298 -520 -297 -366 3 -629 217 -791 645 l-46 124 -70 -18 c-38 -10 -72
-20 -77 -23 -9 -6 -3 -48 35 -286 29 -175 26 -161 53 -295 37 -184 25 -167
154 -213 133 -47 288 -87 412 -106 105 -16 339 -18 440 -4 375 51 681 256 820
549 55 116 76 215 78 354 1 197 -24 306 -104 446 -51 89 -166 216 -243 268
-12 8 -23 18 -26 21 -8 11 -211 145 -245 162 -16 8 -57 30 -90 49 -33 19 -85
47 -116 63 l-55 29 76 76 c166 164 248 350 254 573 4 168 -30 297 -110 418
-49 74 -61 88 -127 148 -42 38 -44 42 -19 36 257 -60 400 -214 501 -540 l32
-101 77 16 c56 12 76 21 75 31 -4 28 -35 305 -38 340 -4 45 -14 136 -20 180
-2 19 -7 64 -11 100 -7 70 -8 73 -27 76 -7 1 -79 16 -162 33 -153 31 -186 36
-312 49 -89 10 -278 8 -353 -3 -91 -14 -150 -10 -259 16 l-104 25 39 12 c22 6
41 11 44 11 3 -1 40 15 82 34 265 121 425 305 473 546 24 114 17 269 -16 370
-77 237 -317 429 -596 477 -15 3 -35 7 -43 9 -8 2 -35 7 -60 10 -25 3 -61 8
-80 12 -19 3 -379 7 -800 9 l-766 3 1 -69z m1344 -124 c25 -3 57 -8 71 -11 14
-3 34 -7 45 -9 96 -19 221 -90 296 -169 135 -140 188 -404 128 -632 -6 -22
-11 -41 -10 -43 1 -1 -12 -29 -29 -62 -38 -76 -118 -159 -195 -205 -66 -39
-189 -80 -275 -90 -30 -4 -64 -9 -75 -11 -34 -7 -400 -8 -410 -2 -12 7 -12
999 -1 1081 14 108 55 139 201 154 33 3 61 6 62 7 4 3 149 -3 192 -8z m21
-1430 c71 -8 257 -50 267 -60 2 -2 -21 -22 -51 -45 -230 -173 -349 -415 -340
-693 7 -229 90 -416 256 -577 l50 -49 -28 -5 c-83 -16 -118 -19 -209 -19 -178
1 -274 25 -334 84 -47 46 -66 89 -87 198 -4 19 -7 293 -8 609 l-2 574 231 -7
c126 -4 241 -8 255 -10z m531 -213 c169 -157 234 -446 163 -728 -18 -72 -70
-188 -94 -210 -16 -15 -22 -12 -76 33 -180 149 -260 315 -250 518 7 135 26
206 79 297 31 52 104 127 124 127 7 0 32 -17 54 -37z"/>
</g>
</svg>
